<svg width="1172" height="451" viewBox="0 0 1172 451" fill="none" xmlns="http://www.w3.org/2000/svg" className="yumbox-vector-bg">
<path d="M103.303 260.389L44.3613 82.2344H96.2124L129.45 196.13H130.337L163.574 82.2344H210.994L152.052 260.389V392.454H103.303V260.389Z" fill="#E9E5E1"/>
<path d="M303.862 396.886C280.227 396.886 262.204 390.239 249.796 376.943C237.387 363.353 231.182 344.001 231.182 318.888V82.2344H279.931V322.433C279.931 333.069 281.999 340.751 286.136 345.478C290.567 350.205 296.772 352.569 304.749 352.569C312.726 352.569 318.783 350.205 322.919 345.478C327.351 340.751 329.566 333.069 329.566 322.433V82.2344H376.543V318.888C376.543 344.001 370.338 363.353 357.929 376.943C345.521 390.239 327.498 396.886 303.862 396.886Z" fill="#E9E5E1"/>
<path d="M411.262 82.2344H480.84L511.862 304.263H512.749L543.77 82.2344H613.348V392.454H567.259V157.574H566.372L530.919 392.454H490.147L454.693 157.574H453.807V392.454H411.262V82.2344Z" fill="#E9E5E1"/>
<path d="M649.727 82.2344H723.293C748.406 82.2344 766.724 88.1434 778.246 99.9613C789.769 111.484 795.53 129.358 795.53 153.585V165.994C795.53 181.948 792.871 194.948 787.553 204.993C782.53 215.038 774.701 222.277 764.065 226.708V227.595C788.292 235.867 800.405 257.435 800.405 292.298V318.888C800.405 342.819 794.053 361.137 781.349 373.841C768.94 386.25 750.622 392.454 726.395 392.454H649.727V82.2344ZM717.532 208.538C727.282 208.538 734.52 206.027 739.247 201.004C744.27 195.982 746.781 187.562 746.781 175.744V158.46C746.781 147.233 744.713 139.108 740.577 134.086C736.736 129.063 730.532 126.552 721.964 126.552H698.475V208.538H717.532ZM726.395 348.137C734.963 348.137 741.315 345.922 745.452 341.49C749.588 336.763 751.656 328.785 751.656 317.558V290.525C751.656 276.344 749.145 266.594 744.122 261.276C739.395 255.662 731.418 252.855 720.191 252.855H698.475V348.137H726.395Z" fill="#E9E5E1"/>
<path d="M899.364 396.886C875.432 396.886 857.115 390.091 844.41 376.5C831.706 362.91 825.354 343.706 825.354 318.888V155.801C825.354 130.983 831.706 111.779 844.41 98.1886C857.115 84.598 875.432 77.8027 899.364 77.8027C923.295 77.8027 941.613 84.598 954.317 98.1886C967.021 111.779 973.373 130.983 973.373 155.801V318.888C973.373 343.706 967.021 362.91 954.317 376.5C941.613 390.091 923.295 396.886 899.364 396.886ZM899.364 352.569C916.204 352.569 924.624 342.376 924.624 321.99V152.699C924.624 132.313 916.204 122.12 899.364 122.12C882.523 122.12 874.103 132.313 874.103 152.699V321.99C874.103 342.376 882.523 352.569 899.364 352.569Z" fill="#E9E5E1"/>
<path d="M1042.4 233.799L988.781 82.2344H1040.19L1072.98 182.391H1073.87L1107.55 82.2344H1153.64L1100.02 233.799L1156.3 392.454H1104.89L1069.44 284.321H1068.55L1032.21 392.454H986.121L1042.4 233.799Z" fill="#E9E5E1"/>
<path d="M5.25022 246.89C1.84281 175.038 21.0724 51.9564 125.25 134.445C255.472 237.556 -189.805 418.945 277.695 313.445C512.137 260.539 696.361 27.3343 799.472 216.668C902.583 406.001 909.584 522.278 976.695 386.278C1043.81 250.278 1267.92 196.223 1113.69 197.557C959.472 198.89 915.028 289.556 925.25 134.445C933.428 10.3565 771.324 -1.99903 689.25 7.33431" stroke="#222222" stroke-width="9.77778"/>
</svg>
